<svg class="svg-icon" style="width: 1em; height: 1em;vertical-align: middle;fill: currentColor;overflow: hidden;" viewBox="0 0 1024 1024" version="1.1" xmlns="http://www.w3.org/2000/svg"><path d="M682.666667 725.333333v-277.333333C682.666667 341.333333 597.333333 256 490.666667 256S298.666667 341.333333 298.666667 448V725.333333h384m85.333333-42.666666l85.333333 85.333333v42.666667H128v-42.666667l85.333333-85.333333v-234.666667c0-130.986667 90.88-240.64 213.333334-269.653333V149.333333A64 64 0 0 1 490.666667 85.333333 64 64 0 0 1 554.666667 149.333333v29.013334c122.026667 29.013333 213.333333 138.666667 213.333333 269.653333V682.666667m-277.333333 256a85.333333 85.333333 0 0 1-85.333334-85.333334h170.666667a85.333333 85.333333 0 0 1-85.333333 85.333334m361.386666-512c-6.4-113.066667-64.426667-213.333333-151.466666-273.92l61.013333-61.013334c101.973333 77.653333 169.386667 197.973333 175.786667 334.933334h-85.333334M280.746667 152.746667C193.706667 213.333333 135.68 313.6 128 426.666667H42.666667a451.413333 451.413333 0 0 1 177.066666-334.933334l61.013334 61.013334z" fill="" /></svg>